<?xml version="1.0" standalone="no"?><!DOCTYPE svg PUBLIC "-//W3C//DTD SVG 1.1//EN" "http://www.w3.org/Graphics/SVG/1.1/DTD/svg11.dtd"><svg class="icon" width="64px" height="64.00px" viewBox="0 0 1024 1024" version="1.1" xmlns="http://www.w3.org/2000/svg"><path fill="#108ee9" d="M847.367 169.351c-86.205-83.087-205.174-134.473-336.457-134.473-131.296 0-250.252 51.386-336.457 134.473-86.519 83.393-140.035 198.654-140.035 326 0 55.393 10.198 108.607 28.854 157.982 19.33 51.145 47.733 98.020 83.263 138.746 26.271 30.089 14.745 57.556-16.887 132.89-5.468 13.007-11.459 27.31-17.532 42.164-6.51 18.217 0.373 23.874 16.64 19.123 33.827-11.79 69.589-25.649 101.245-37.917 25.103-9.725 47.695-18.483 63.23-23.919l0.014 0.054c26.906-9.36 39.271-4.357 57.844 3.158 10.169 4.111 21.914 8.857 37.676 12.869 19.839 5.071 40.036 8.926 60.437 11.469 20.266 2.528 40.876 3.844 61.708 3.844 131.282 0 250.252-51.386 336.457-134.473 86.514-83.393 140.031-198.654 140.031-325.995-0.001-127.346-53.517-242.607-140.032-326zM292.865 575.893c-35.538 0-64.532-28.975-64.532-64.519 0-35.539 28.994-64.53 64.532-64.53 35.534 0 64.517 28.99 64.517 64.53 0 35.545-28.985 64.519-64.517 64.519zM510.916 575.893c-35.534 0-64.532-28.975-64.532-64.519 0-35.539 28.999-64.53 64.532-64.53 35.534 0 64.517 28.99 64.517 64.53 0 35.545-28.983 64.519-64.517 64.519zM728.969 575.893c-35.534 0-64.532-28.975-64.532-64.519 0-35.539 28.999-64.53 64.532-64.53s64.517 28.99 64.517 64.53c-0.001 35.545-28.985 64.519-64.517 64.519z" /></svg>