<?xml version="1.0" standalone="no"?><!DOCTYPE svg PUBLIC "-//W3C//DTD SVG 1.1//EN" "http://www.w3.org/Graphics/SVG/1.1/DTD/svg11.dtd"><svg class="icon" width="64px" height="64.00px" viewBox="0 0 1024 1024" version="1.1" xmlns="http://www.w3.org/2000/svg"><path fill="#515151" d="M179.537026 580.26578c10.43056 39.800471 179.414229 28.465309 377.439328-25.317619 153.747663-41.758056 279.405571-96.758718 323.202053-137.924279-35.149545-162.992211-179.614797-285.181111-352.695784-285.181111-199.38405 0-361.018334 162.066119-361.018334 361.979218 0 25.324782 2.638083 50.025347 7.572466 73.882708C174.036755 567.704696 178.363294 575.785745 179.537026 580.26578zM271.319405 748.352009c65.320705 66.281589 155.853627 107.448174 256.162194 107.448174 168.05246 0 308.87065-115.302049 349.109096-271.186376-78.67792 48.478108-178.265056 91.577718-290.083771 122.057917C473.04171 737.601154 364.167047 750.805898 271.319405 748.352009zM1012.259608 355.035062c-7.192819-27.304879-31.468712-48.238654-67.462484-63.202461-6.468318-4.40431-14.519692-6.300496-22.62837-4.088108-14.915711 4.065596-23.76731 19.661805-19.771299 34.837436 2.39249 9.084912 9.031701 15.490809 17.030885 18.671245l-0.107447 0.267083c16.872273 7.626701 27.868721 17.665335 31.206746 30.343075 16.747429 63.587224-158.535713 166.614715-391.509788 230.120075C326.046844 665.488767 123.606179 665.423275 106.85875 601.837074c-3.303232-12.539594 1.11438-26.646893 11.713786-41.647539l-0.23536-0.215918c4.578272-6.649444 6.628978-15.012925 4.40124-23.466458-3.998057-15.175631-19.331277-24.182772-34.246989-20.116153-8.456602 2.305509-14.5903 8.475022-17.912975 16.013719-22.317285 30.2827-32.428573 59.771315-25.453718 86.259596 25.885554 98.270141 263.367293 118.918413 530.433838 46.119387S1038.143115 453.306226 1012.259608 355.035062z" /></svg>